<svg width="2854" height="2854" viewBox="0 0 2854 2854" fill="none" xmlns="http://www.w3.org/2000/svg">
<mask id="mask0_89_470" style="mask-type:alpha" maskUnits="userSpaceOnUse" x="0" y="0" width="2854" height="2854">
<circle cx="1427" cy="1427" r="1427" fill="#C4C4C4"/>
</mask>
<g mask="url(#mask0_89_470)">
<path d="M3351 -313H-498V3167.04H3351V-313Z" fill="url(#paint0_linear_89_470)"/>
<path fill-rule="evenodd" clip-rule="evenodd" d="M543 785.6C681.837 812.501 760.616 894.738 784.537 1027.2C782.075 889.999 863.687 810.132 1026.07 785.6C879.712 770.128 801.909 686.776 784.537 544C767.723 681.851 692.939 767.666 543 785.6Z" fill="white"/>
<path fill-rule="evenodd" clip-rule="evenodd" d="M1770.54 1814.15L1717.87 1954.66L1285.39 1828.38L1329.12 1677.69L998.658 1546.49C1104.01 1417.75 1209.36 1354.52 1372.84 1274.26C1358.26 1021.52 1562.3 840.443 1805.31 662C1998.46 899.105 2083.97 1109.51 1951.92 1404.75C2061.31 1523.3 2108.2 1713.69 2106.44 1891.61L1770.54 1814.15ZM1845.72 1143.97C1845.72 1213.42 1789.43 1269.73 1719.99 1269.73C1650.56 1269.73 1594.27 1213.42 1594.27 1143.97C1594.27 1074.52 1650.56 1018.22 1719.99 1018.22C1789.43 1018.22 1845.72 1074.52 1845.72 1143.97Z" fill="white"/>
<path d="M1606.37 2246.91C1606.37 2246.91 1509 2830 1095 2978L445 2564C1017.5 2564 1222.71 2121.69 1222.71 2121.69L1606.37 2246.91Z" fill="white"/>
</g>
<defs>
<linearGradient id="paint0_linear_89_470" x1="112.463" y1="3485.86" x2="2365.33" y2="-827.778" gradientUnits="userSpaceOnUse">
<stop stop-color="#ED0A62"/>
<stop offset="1" stop-color="#890CEA"/>
</linearGradient>
</defs>
</svg>
